<svg xmlns="http://www.w3.org/2000/svg" shape-rendering="crispEdges" viewBox="-1 -1 11 11" height="100%" width="100%" version="1.2"><path style="fill:#fa87d5;fill-opacity:1.0;" d="M0 0h1v1h-1zM4 0h1v1h-1zM8 0h1v1h-1zM0 1h2v1h-2zM7 1h2v1h-2zM0 2h2v1h-2zM7 2h2v1h-2zM2 3h2v1h-2zM5 3h2v1h-2zM0 4h2v1h-2zM4 4h1v1h-1zM7 4h2v1h-2zM1 5h1v1h-1zM3 5h3v1h-3zM7 5h1v1h-1zM1 6h1v1h-1zM3 6h1v1h-1zM5 6h1v1h-1zM7 6h1v1h-1zM1 7h1v1h-1zM7 7h1v1h-1zM0 8h1v1h-1zM8 8h1v1h-1z"/><defs><mask maskContentUnits="userSpaceOnUse" id="a"><path style="fill-opacity:1.0;fill:#fff;" d="M-1 -1h11v11h-11z"/><path style="fill-opacity:1;" d="M0 0h1v1h-1zM4 0h1v1h-1zM8 0h1v1h-1zM0 1h2v1h-2zM7 1h2v1h-2zM0 2h2v1h-2zM7 2h2v1h-2zM2 3h2v1h-2zM5 3h2v1h-2zM0 4h2v1h-2zM4 4h1v1h-1zM7 4h2v1h-2zM1 5h1v1h-1zM3 5h3v1h-3zM7 5h1v1h-1zM1 6h1v1h-1zM3 6h1v1h-1zM5 6h1v1h-1zM7 6h1v1h-1zM1 7h1v1h-1zM7 7h1v1h-1zM0 8h1v1h-1zM8 8h1v1h-1z"/></mask></defs><path mask="url(#a)" style="fill-opacity:1; fill:#0578D5;" d="M-1 -1h11v11h-11z"/></svg>