<svg xmlns="http://www.w3.org/2000/svg" viewBox="0 0 24 24">
<path d="M 5.78125 4.1875 C 3.48125 6.0215 2 8.837 2 12 C 2 15.163 3.48125 17.9785 5.78125 19.8125 L 7.03125 18.25 C 5.19125 16.783 4 14.53 4 12 C 4 9.47 5.19125 7.217 7.03125 5.75 L 5.78125 4.1875 z M 18.25 4.1875 L 17 5.75 C 18.83 7.218 20 9.477 20 12 C 20 14.523 18.83 16.782 17 18.25 L 18.25 19.8125 C 20.538 17.9775 22 15.154 22 12 C 22 8.846 20.538 6.0215 18.25 4.1875 z M 8.28125 7.3125 C 6.90125 8.4125 6 10.102 6 12 C 6 13.898 6.90125 15.5875 8.28125 16.6875 L 9.53125 15.125 C 8.61225 14.391 8 13.265 8 12 C 8 10.735 8.61225 9.609 9.53125 8.875 L 8.28125 7.3125 z M 15.75 7.3125 L 14.5 8.90625 C 15.416 9.64025 16 10.739 16 12 C 16 13.262 15.415 14.36075 14.5 15.09375 L 15.75 16.6875 C 17.122 15.5875 18 13.892 18 12 C 18 10.108 17.123 8.4135 15.75 7.3125 z M 12 10.5 C 11.171573 10.5 10.5 11.171573 10.5 12 C 10.5 12.828427 11.171573 13.5 12 13.5 C 12.828427 13.5 13.5 12.828427 13.5 12 C 13.5 11.171573 12.828427 10.5 12 10.5 z"/>
</svg>