<svg xmlns="http://www.w3.org/2000/svg" viewBox="0 0 24 24">
<path d="M 3.90625 2.28125 L 2.5 3.71875 L 4.34375 5.5625 C 2.8847559 7.2990879 2 9.55875 2 12 C 2 15.162 3.48125 17.9785 5.78125 19.8125 L 7.03125 18.25 C 5.19125 16.783 4 14.53 4 12 C 4 10.111392 4.6813379 8.3690147 5.78125 7 L 7.1875 8.40625 C 6.44465 9.4038808 6 10.663008 6 12 C 6 13.898 6.90125 15.5875 8.28125 16.6875 L 9.53125 15.09375 C 8.61225 14.35975 8 13.265 8 12 C 8 11.214008 8.2597973 10.490055 8.65625 9.875 L 10.53125 11.75 C 10.517412 11.831789 10.5 11.91425 10.5 12 C 10.5 12.828 11.172 13.5 12 13.5 C 12.08575 13.5 12.168169 13.482588 12.25 13.46875 L 20.5 21.71875 L 21.90625 20.28125 L 3.90625 2.28125 z M 18.25 4.1875 L 17 5.75 C 18.83 7.217 20 9.477 20 12 C 20 13.194 19.722 14.2945 19.25 15.3125 L 20.71875 16.8125 C 21.51475 15.3805 22 13.751 22 12 C 22 8.846 20.538 6.0215 18.25 4.1875 z M 15.75 7.3125 L 14.5 8.875 C 15.416 9.609 16 10.738 16 12 C 16 12.027 16.001 12.0355 16 12.0625 L 17.71875 13.78125 C 17.89975 13.21225 18 12.628 18 12 C 18 10.108 17.123 8.4135 15.75 7.3125 z"/>
</svg>